HIERARCHY
ROOT Hips
{
	OFFSET 0.000000 0.000000 0.000000
	CHANNELS 6 Xposition Yposition Zposition Xrotation Yrotation Zrotation
	JOINT LeftUpLeg_virtual
	{
		OFFSET 0.000000 0.000000 0.000000
		CHANNELS 3 Xrotation Yrotation Zrotation
		JOINT LeftUpLeg
		{
			OFFSET 10.205400 -3.823500 0.155100
			CHANNELS 3 Xrotation Yrotation Zrotation
			JOINT LeftLeg
			{
				OFFSET 0.708757 -12.982077 0.567790
				CHANNELS 3 Xrotation Yrotation Zrotation
				JOINT LeftFoot
				{
					OFFSET -0.708756 -10.717838 -2.184338
					CHANNELS 3 Xrotation Yrotation Zrotation
					JOINT LeftToeBase
					{
						OFFSET 0.108149 -7.191104 7.560241
						CHANNELS 3 Xrotation Yrotation Zrotation
						JOINT LeftToe_End
						{
							OFFSET 0.070230 0.081724 4.490308
							CHANNELS 3 Xrotation Yrotation Zrotation
							End Site
							{
								OFFSET 0 0 0
							}
						}
					}
				}
			}
		}
	}
	JOINT RightUpLeg_virtual
	{
		OFFSET 0.000000 0.000000 0.000000
		CHANNELS 3 Xrotation Yrotation Zrotation
		JOINT RightUpLeg
		{
			OFFSET -10.205400 -3.823500 0.005500
			CHANNELS 3 Xrotation Yrotation Zrotation
			JOINT RightLeg
			{
				OFFSET -0.708756 -12.982134 0.610632
				CHANNELS 3 Xrotation Yrotation Zrotation
				JOINT RightFoot
				{
					OFFSET 0.708754 -10.717769 -1.945823
					CHANNELS 3 Xrotation Yrotation Zrotation
					JOINT RightToeBase
					{
						OFFSET -0.108140 -7.191069 7.372968
						CHANNELS 3 Xrotation Yrotation Zrotation
						JOINT RightToe_End
						{
							OFFSET -0.070227 0.081735 4.479403
							CHANNELS 3 Xrotation Yrotation Zrotation
							End Site
							{
								OFFSET 0 0 0
							}
						}
					}
				}
			}
		}
	}
	JOINT Spine_virtual
	{
		OFFSET 0.000000 0.000000 0.000000
		CHANNELS 3 Xrotation Yrotation Zrotation
		JOINT Spine
		{
			OFFSET 0.000000 6.876099 0.125700
			CHANNELS 3 Xrotation Yrotation Zrotation
			JOINT Spine1
			{
				OFFSET 0.000000 5.730043 0.104720
				CHANNELS 3 Xrotation Yrotation Zrotation
				JOINT Spine1_split
				{
					OFFSET 0.000000 5.730043 0.104720
					CHANNELS 3 Xrotation Yrotation Zrotation
					JOINT Spine2
					{
						OFFSET 0.000000 5.730043 0.104720
						CHANNELS 3 Xrotation Yrotation Zrotation
						JOINT Neck_virtual
						{
							OFFSET 0.000000 0.000000 0.000000
							CHANNELS 3 Xrotation Yrotation Zrotation
							JOINT Neck
							{
								OFFSET 0.000000 10.314075 0.188496
								CHANNELS 3 Xrotation Yrotation Zrotation
								JOINT Head
								{
									OFFSET 0.000000 7.643700 -2.377400
									CHANNELS 3 Xrotation Yrotation Zrotation
									JOINT HeadTop_End
									{
										OFFSET 0.000000 43.788605 -13.619600
										CHANNELS 3 Xrotation Yrotation Zrotation
										End Site
										{
											OFFSET 0 0 0
										}
									}
								}
							}
						}
						JOINT LeftShoulder_virtual
						{
							OFFSET 0.000000 0.000000 0.000000
							CHANNELS 3 Xrotation Yrotation Zrotation
							JOINT LeftShoulder
							{
								OFFSET 2.196100 4.412489 0.087492
								CHANNELS 3 Xrotation Yrotation Zrotation
								JOINT LeftShoulder_split
								{
									OFFSET 2.196100 4.412489 0.087492
									CHANNELS 3 Xrotation Yrotation Zrotation
									JOINT LeftArm
									{
										OFFSET 8.771219 -2.981674 -0.026999
										CHANNELS 3 Xrotation Yrotation Zrotation
										JOINT LeftForeArm
										{
											OFFSET 8.512804 0.000000 -0.000000
											CHANNELS 3 Xrotation Yrotation Zrotation
											JOINT LeftHand
											{
												OFFSET 18.484802 0.000000 -0.000000
												CHANNELS 3 Xrotation Yrotation Zrotation
												End Site
												{
													OFFSET 0 0 0
												}
											}
										}
									}
								}
							}
						}
						JOINT RightShoulder_virtual
						{
							OFFSET 0.000000 0.000000 0.000000
							CHANNELS 3 Xrotation Yrotation Zrotation
							JOINT RightShoulder
							{
								OFFSET -2.196100 4.412496 0.070690
								CHANNELS 3 Xrotation Yrotation Zrotation
								JOINT RightShoulder_split
								{
									OFFSET -2.196100 4.412496 0.070690
									CHANNELS 3 Xrotation Yrotation Zrotation
									JOINT RightArm
									{
										OFFSET -8.771282 -2.981682 -0.094208
										CHANNELS 3 Xrotation Yrotation Zrotation
										JOINT RightForeArm
										{
											OFFSET -8.494598 0.000000 0.000000
											CHANNELS 3 Xrotation Yrotation Zrotation
											JOINT RightHand
											{
												OFFSET -18.483803 0.000000 0.000001
												CHANNELS 3 Xrotation Yrotation Zrotation
												End Site
												{
													OFFSET 0 0 0
												}
											}
										}
									}
								}
							}
						}
					}
				}
			}
		}
	}
}
MOTION
Frames: 9
Frame Time: 0.03333333
-1.760594 33.467785 -1.295037 0.000000 0.000000 0.000000 -9.054036 -5.130250 7.630326 16.142302 13.417130 -12.837483 -2.789429 -0.360589 0.746941 -3.169986 0.002260 2.316611 0.000003 0.000005 0.000002 0.000000 0.000000 0.000000 -9.054036 -5.130250 7.630326 -8.074379 -12.819517 -26.770056 40.684435 4.095028 2.067979 -23.965225 -12.334006 8.698159 -0.000226 0.000006 0.000286 0.000000 0.000000 0.000000 -9.054036 -5.130250 7.630326 2.386095 1.098101 -4.320710 4.666353 1.729999 -2.802046 0.000000 0.000000 0.000000 0.000000 0.000000 0.000000 4.685182 1.690012 -2.793393 -2.808737 -0.350889 -5.041334 -1.723852 -2.292228 2.025737 0.000000 0.000000 0.000000 4.685182 1.690012 -2.793393 4.034690 -13.464722 -7.420032 0.000000 0.000000 0.000000 5.772106 3.721080 -60.112946 11.491845 -25.077058 -5.820580 0.000000 0.000000 0.000000 4.685182 1.690012 -2.793393 3.919279 12.466718 7.900353 0.000000 0.000000 0.000000 -3.939683 -11.622642 68.565086 15.857372 12.603594 4.140677 0.000000 0.000000 0.000000 
-1.816106 33.565067 -1.217853 0.000000 0.000000 0.000000 -9.322232 -4.944172 7.418943 12.364086 14.142384 -11.779979 4.624726 -0.587696 1.002517 -4.312786 0.343716 2.650735 0.000000 -0.000004 0.000000 0.000000 0.000000 0.000000 -9.322232 -4.944172 7.418943 -7.532286 -12.960682 -26.245497 40.557055 3.811923 2.005045 -23.340742 -12.378184 8.403605 -0.312311 -0.002166 0.396449 0.000000 0.000000 0.000000 -9.322232 -4.944172 7.418943 2.748129 1.030754 -4.347144 5.395335 1.608660 -2.665654 0.000000 0.000000 0.000000 0.000000 0.000000 0.000000 5.413138 1.560643 -2.655693 -4.963398 -0.057444 -5.756622 -1.813866 -2.079884 1.239584 0.000000 0.000000 0.000000 5.413138 1.560643 -2.655693 3.884192 -14.711375 -6.633746 0.000000 0.000000 0.000000 14.149907 -3.920243 -57.208141 5.105496 -33.594992 -7.629408 0.000000 0.000000 0.000000 5.413138 1.560643 -2.655693 3.778987 13.585870 7.369173 0.000000 0.000000 0.000000 -1.561293 -8.690961 67.291133 19.661265 17.108697 3.253665 0.000000 0.000000 0.000000 
-1.870860 33.810974 -1.018382 0.000000 0.000000 0.000000 -9.802486 -4.545590 6.905310 10.751482 14.176722 -10.573738 7.776952 -0.674653 0.750005 -3.099961 0.555185 3.196123 -2.580245 0.039808 -0.883174 0.000000 0.000000 0.000000 -9.802486 -4.545590 6.905310 -6.460811 -13.666986 -25.910434 39.356561 3.918032 2.061448 -20.368790 -12.356471 9.583040 -1.365110 -0.041197 1.729346 0.000000 0.000000 0.000000 -9.802486 -4.545590 6.905310 3.319490 0.948950 -4.454706 6.545347 1.462752 -2.356482 0.000000 0.000000 0.000000 0.000000 0.000000 0.000000 6.561995 1.400467 -2.344019 -7.591526 0.266903 -6.803656 -3.470359 -1.812353 0.075823 0.000000 0.000000 0.000000 6.561995 1.400467 -2.344019 3.718488 -16.068578 -5.869244 0.000000 0.000000 0.000000 24.385440 -11.673125 -51.699689 -1.015584 -43.851652 -7.921016 0.000000 0.000000 0.000000 6.561995 1.400467 -2.344019 3.632229 14.772951 6.764334 0.000000 0.000000 0.000000 2.374864 -4.131463 64.732899 24.567528 23.972115 0.180319 0.000000 0.000000 0.000000 
-1.954165 34.131882 -0.839725 0.000000 0.000000 0.000000 -10.406249 -4.002001 6.286965 9.254616 13.499690 -9.025268 10.259759 -0.756770 0.411800 -1.224462 1.189981 2.908458 -5.645673 0.074175 -0.750160 0.000000 0.000000 0.000000 -10.406249 -4.002001 6.286965 -5.557205 -14.384339 -25.699289 38.175085 4.161919 2.132228 -15.784980 -12.290069 11.668508 -5.558169 -0.072890 0.749243 0.000000 0.000000 0.000000 -10.406249 -4.002001 6.286965 4.089988 0.834188 -4.654437 8.102735 1.308806 -1.967463 0.000000 0.000000 0.000000 0.000000 0.000000 0.000000 8.118219 1.224252 -1.950584 -10.959817 0.827376 -8.283233 -5.796055 -1.466745 -1.105882 0.000000 0.000000 0.000000 8.118219 1.224252 -1.950584 3.677908 -17.189247 -4.621427 0.000000 0.000000 0.000000 35.375585 -17.290670 -44.197242 -8.508742 -55.069701 -8.002256 0.000000 0.000000 0.000000 8.118219 1.224252 -1.950584 3.594175 15.776882 5.711506 0.000000 0.000000 0.000000 7.321299 0.823310 61.355924 28.871469 31.893544 -5.417117 0.000000 0.000000 0.000000 
-2.059936 34.473061 -0.766955 0.000000 0.000000 0.000000 -11.321542 -3.393924 5.590865 7.994089 12.292410 -7.379093 12.216723 -0.875151 0.041900 1.126689 2.137449 2.303116 -8.445765 0.068506 -0.461310 0.000000 0.000000 0.000000 -11.321542 -3.393924 5.590865 -4.280383 -15.033663 -25.165060 36.562686 4.181588 2.223050 -10.869754 -11.916358 13.395164 -9.526671 0.001941 -0.011150 0.000000 0.000000 0.000000 -11.321542 -3.393924 5.590865 5.049478 0.711810 -4.842840 10.048705 1.179355 -1.506793 0.000000 0.000000 0.000000 0.000000 0.000000 0.000000 10.062919 1.064181 -1.482888 -15.086220 1.643470 -10.274194 -7.234900 -1.305720 -2.073887 0.000000 0.000000 0.000000 10.062919 1.064181 -1.482888 3.792819 -17.998865 -2.810013 0.000000 0.000000 0.000000 45.750253 -19.635081 -36.192284 -21.232070 -66.513700 -12.196905 0.000000 0.000000 0.000000 10.062919 1.064181 -1.482888 3.695872 16.509330 4.154546 0.000000 0.000000 0.000000 12.858304 5.242523 57.359512 31.447017 40.722185 -12.921428 0.000000 0.000000 0.000000 
-2.201137 34.844265 -0.829000 0.000000 0.000000 0.000000 -11.668442 -2.812483 4.719672 6.451361 11.568292 -5.528903 13.157845 -1.006123 -0.304292 3.840592 2.556492 1.678574 -10.746289 0.046038 -0.242486 0.000000 0.000000 0.000000 -11.668442 -2.812483 4.719672 -5.335534 -12.025687 -24.664930 37.843749 4.659667 2.033676 -5.077820 -11.175339 17.000407 -11.950612 0.374433 -1.768112 0.000000 0.000000 0.000000 -11.668442 -2.812483 4.719672 5.969023 0.589871 -4.864344 11.925766 1.197064 -1.127009 0.000000 0.000000 0.000000 0.000000 0.000000 0.000000 11.939824 1.053964 -1.095914 -18.678995 2.360588 -12.136421 -8.640262 -1.370357 -2.697554 0.000000 0.000000 0.000000 11.939824 1.053964 -1.095914 3.767382 -18.757057 -1.913565 0.000000 0.000000 0.000000 54.316915 -18.784564 -28.071871 -46.310158 -76.081341 -29.622657 0.000000 0.000000 0.000000 11.939824 1.053964 -1.095914 3.634462 17.267914 3.450432 0.000000 0.000000 0.000000 17.972275 7.903374 52.294520 33.437840 49.740777 -21.898876 0.000000 0.000000 0.000000 
-2.342199 35.270401 -0.952659 0.000000 0.000000 0.000000 -11.649664 -2.235007 3.497738 5.171190 11.087634 -3.426909 12.779483 -1.122103 -0.575134 6.668715 2.605957 1.038255 -12.443195 0.010288 -0.046528 0.000000 0.000000 0.000000 -11.649664 -2.235007 3.497738 -10.489295 -3.385836 -22.791382 48.877879 4.883327 1.346216 -6.807074 -9.723049 18.961922 0.000009 0.000002 -0.000005 0.000000 0.000000 0.000000 -11.649664 -2.235007 3.497738 6.937606 0.504430 -4.367643 13.897080 1.341576 -0.871818 0.000000 0.000000 0.000000 0.000000 0.000000 0.000000 13.911355 1.185208 -0.836186 -20.580695 3.346885 -13.019384 -10.792418 -0.707096 -3.623231 0.000000 0.000000 0.000000 13.911355 1.185208 -0.836186 3.102878 -19.861425 -4.146624 0.000000 0.000000 0.000000 60.448834 -15.465713 -19.147641 -89.318800 -82.240785 -67.492869 0.000000 0.000000 0.000000 13.911355 1.185208 -0.836186 2.892189 18.619727 5.627763 0.000000 0.000000 0.000000 21.713545 8.045574 45.273718 39.228502 57.568516 -34.668988 0.000000 0.000000 0.000000 
-2.463760 35.669319 -1.099126 0.000000 0.000000 0.000000 -10.614592 -1.657868 2.076040 2.994703 10.677088 -1.323662 12.439197 -1.180525 -0.800766 8.479190 2.670923 0.921179 -12.983442 0.044750 -0.194003 0.000000 0.000000 0.000000 -10.614592 -1.657868 2.076040 -17.553713 3.395090 -20.542366 59.474330 5.104552 0.955822 -8.797008 -7.844093 19.338772 0.000003 0.000005 -0.000004 0.000000 0.000000 0.000000 -10.614592 -1.657868 2.076040 7.758281 0.480945 -3.553386 15.559932 1.586076 -0.715184 0.000000 0.000000 0.000000 0.000000 0.000000 0.000000 15.574387 1.436217 -0.680106 -18.788711 4.106498 -12.224915 -14.974216 1.128072 -5.691694 0.000000 0.000000 0.000000 15.574387 1.436217 -0.680106 1.671286 -21.208849 -9.585020 0.000000 0.000000 0.000000 63.563113 -10.963355 -9.918370 -171.095610 -84.591367 -146.812908 0.000000 0.000000 0.000000 15.574387 1.436217 -0.680106 1.399883 20.579188 10.781946 0.000000 0.000000 0.000000 23.659191 5.972947 36.679837 52.772760 62.696752 -54.283144 0.000000 0.000000 0.000000 
-2.519984 36.025810 -1.303154 0.000000 0.000000 0.000000 -8.875468 -1.393371 0.396696 -0.425147 10.729799 0.967092 13.272240 -1.199844 -1.021409 9.301802 2.557304 1.244121 -13.035945 0.121709 -0.525592 0.000000 0.000000 0.000000 -8.875468 -1.393371 0.396696 -25.833703 6.687738 -17.960114 68.271327 4.949538 0.671435 -9.636404 -6.033490 15.775133 0.000004 0.000003 0.000002 0.000000 0.000000 0.000000 -8.875468 -1.393371 0.396696 8.375963 0.599050 -2.644722 16.798208 1.976616 -0.553600 0.000000 0.000000 0.000000 0.000000 0.000000 0.000000 16.812750 1.847508 -0.523513 -14.390420 4.195306 -9.654252 -18.669427 3.796728 -8.942849 0.000000 0.000000 0.000000 16.812750 1.847508 -0.523513 0.097648 -22.255596 -15.233566 0.000000 0.000000 0.000000 62.767191 -6.606427 -2.369630 137.181563 -78.514869 161.833532 0.000000 0.000000 0.000000 16.812750 1.847508 -0.523513 -0.142176 22.442747 16.080321 0.000000 0.000000 0.000000 23.697536 2.931917 28.770208 71.252704 64.965781 -78.017426 0.000000 0.000000 0.000000 
